<svg width="64" height="66" viewBox="0 0 64 66" fill="none" xmlns="http://www.w3.org/2000/svg">
<path d="M7.23355 45.5634C10.807 49.9844 15.7286 53.1151 21.2475 54.4776C26.7664 55.8402 32.5796 55.3599 37.8 53.11C43.0204 50.8601 47.3615 46.9641 50.1609 42.0165C52.9602 37.069 54.0642 31.3414 53.3043 25.7078C52.5444 20.0742 49.9624 14.8439 45.9522 10.8148C41.942 6.78577 36.7238 4.17924 31.0938 3.39291" stroke="white" stroke-width="5" stroke-linecap="round"/>
<line x1="30.3984" y1="14.0977" x2="30.3984" y2="34.9354" stroke="white" stroke-width="5"/>
<path d="M31.8057 32.3307L18.7821 41.4473" stroke="white" stroke-width="5"/>
<circle cx="17.7932" cy="3.60472" r="2.60472" fill="white"/>
<circle cx="2.60472" cy="34.2844" r="2.60472" fill="white"/>
<circle cx="2.60472" cy="21.9118" r="2.60472" fill="white"/>
<circle cx="9.05101" cy="10.2561" r="2.60472" fill="white"/>
</svg>
