<svg width="66" height="61" viewBox="0 0 66 61" fill="none" xmlns="http://www.w3.org/2000/svg">
<path d="M8.0946 28.6012L6.07282 14.4335L10.7962 13.7611L12.1423 23.206L21.5867 21.8565L22.2624 26.5795L8.0946 28.6012Z" fill="white"/>
<path d="M27.3613 53.0457C32.0727 54.4204 37.1045 54.2161 41.6889 52.464C46.2734 50.7118 50.1588 47.508 52.7522 43.3414C55.3457 39.1747 56.5049 34.274 56.053 29.387C55.6011 24.5 53.5628 19.895 50.2491 16.2747C46.9355 12.6543 42.5285 10.2174 37.7005 9.33568C32.8725 8.45398 27.8886 9.17593 23.5092 11.3914C19.1298 13.6068 15.5955 17.1941 13.4454 21.6059" stroke="white" stroke-width="5" stroke-linecap="round"/>
<line x1="35.5703" y1="16.2329" x2="35.5703" y2="34.2234" stroke="white" stroke-width="5"/>
<path d="M36.4434 31.9744L25.1993 39.8452" stroke="white" stroke-width="5"/>
</svg>
