<svg width="65" height="58" viewBox="0 0 65 58" fill="none" xmlns="http://www.w3.org/2000/svg">
<path d="M23.4424 10.4189H62.5132" stroke="white" stroke-width="4" stroke-linecap="round"/>
<path d="M23.4424 29.9541H62.5132" stroke="white" stroke-width="4" stroke-linecap="round"/>
<path d="M23.4424 49.4893H62.5132" stroke="white" stroke-width="4" stroke-linecap="round"/>
<path d="M8.7361 1.17082C8.85584 0.802297 9.3772 0.802296 9.49694 1.17082L11.0735 6.02297C11.1271 6.18778 11.2806 6.29936 11.4539 6.29936H16.5558C16.9433 6.29936 17.1044 6.79521 16.7909 7.02297L12.6634 10.0218C12.5232 10.1236 12.4645 10.3042 12.5181 10.469L14.0947 15.3211C14.2144 15.6896 13.7926 15.9961 13.4791 15.7683L9.35163 12.7695C9.21144 12.6677 9.0216 12.6677 8.88141 12.7695L4.75392 15.7683C4.44044 15.9961 4.01865 15.6896 4.13839 15.3211L5.71494 10.469C5.76849 10.3042 5.70983 10.1236 5.56964 10.0218L1.44215 7.02297C1.12867 6.79521 1.28978 6.29936 1.67727 6.29936H6.77912C6.95241 6.29936 7.10599 6.18778 7.15954 6.02297L8.7361 1.17082Z" fill="white"/>
<path d="M8.7361 21.0614C8.85584 20.6929 9.3772 20.6929 9.49694 21.0614L11.0735 25.9136C11.1271 26.0784 11.2806 26.19 11.4539 26.19H16.5558C16.9433 26.19 17.1044 26.6858 16.7909 26.9136L12.6634 29.9124C12.5232 30.0142 12.4645 30.1948 12.5181 30.3596L14.0947 35.2117C14.2144 35.5803 13.7926 35.8867 13.4791 35.659L9.35163 32.6602C9.21144 32.5583 9.0216 32.5583 8.88141 32.6602L4.75392 35.659C4.44044 35.8867 4.01865 35.5803 4.13839 35.2117L5.71494 30.3596C5.76849 30.1948 5.70983 30.0142 5.56964 29.9124L1.44215 26.9136C1.12867 26.6858 1.28978 26.19 1.67727 26.19H6.77912C6.95241 26.19 7.10599 26.0784 7.15954 25.9136L8.7361 21.0614Z" fill="white"/>
<path d="M8.7361 40.2416C8.85584 39.8731 9.3772 39.8731 9.49694 40.2416L11.0735 45.0938C11.1271 45.2586 11.2806 45.3702 11.4539 45.3702H16.5558C16.9433 45.3702 17.1044 45.866 16.7909 46.0938L12.6634 49.0926C12.5232 49.1944 12.4645 49.375 12.5181 49.5398L14.0947 54.3919C14.2144 54.7604 13.7926 55.0669 13.4791 54.8391L9.35163 51.8403C9.21144 51.7385 9.0216 51.7385 8.88141 51.8403L4.75392 54.8391C4.44044 55.0669 4.01865 54.7604 4.13839 54.3919L5.71494 49.5398C5.76849 49.375 5.70983 49.1944 5.56964 49.0926L1.44215 46.0938C1.12867 45.866 1.28978 45.3702 1.67727 45.3702H6.77912C6.95241 45.3702 7.10599 45.2586 7.15954 45.0938L8.7361 40.2416Z" fill="white"/>
</svg>
