<svg width="437" height="94" viewBox="0 0 437 94" fill="none" xmlns="http://www.w3.org/2000/svg">
<rect width="437" height="94" rx="21" fill="#262626"/>
<path d="M132.621 56.4297V61H117.484V56.4297H132.621ZM119.398 32.5625V61H113.539V32.5625H119.398ZM130.648 44.1445V48.5977H117.484V44.1445H130.648ZM132.602 32.5625V37.1523H117.484V32.5625H132.602ZM148.377 56.3906V31H154.041V61H148.944L148.377 56.3906ZM135.018 50.6875V50.2773C135.018 48.6628 135.2 47.1979 135.565 45.8828C135.929 44.5547 136.463 43.4154 137.166 42.4648C137.87 41.5143 138.735 40.7786 139.764 40.2578C140.793 39.737 141.965 39.4766 143.28 39.4766C144.517 39.4766 145.597 39.737 146.522 40.2578C147.459 40.7786 148.254 41.5208 148.905 42.4844C149.569 43.4349 150.103 44.5612 150.506 45.8633C150.91 47.1523 151.203 48.5651 151.385 50.1016V51C151.203 52.4714 150.91 53.8385 150.506 55.1016C150.103 56.3646 149.569 57.4714 148.905 58.4219C148.254 59.3594 147.459 60.0885 146.522 60.6094C145.584 61.1302 144.491 61.3906 143.241 61.3906C141.926 61.3906 140.754 61.1237 139.725 60.5898C138.709 60.056 137.85 59.3073 137.147 58.3438C136.457 57.3802 135.929 56.2474 135.565 54.9453C135.2 53.6432 135.018 52.224 135.018 50.6875ZM140.643 50.2773V50.6875C140.643 51.5599 140.708 52.3737 140.838 53.1289C140.982 53.8841 141.209 54.5547 141.522 55.1406C141.847 55.7135 142.264 56.1628 142.772 56.4883C143.293 56.8008 143.924 56.957 144.666 56.957C145.63 56.957 146.424 56.7422 147.049 56.3125C147.674 55.8698 148.149 55.2643 148.475 54.4961C148.814 53.7279 149.009 52.8424 149.061 51.8398V49.2812C149.022 48.4609 148.905 47.7253 148.709 47.0742C148.527 46.4102 148.254 45.8438 147.889 45.375C147.538 44.9062 147.095 44.5417 146.561 44.2812C146.04 44.0208 145.422 43.8906 144.705 43.8906C143.976 43.8906 143.351 44.0599 142.83 44.3984C142.31 44.724 141.886 45.1732 141.561 45.7461C141.248 46.319 141.014 46.9961 140.858 47.7773C140.715 48.5456 140.643 49.3789 140.643 50.2773ZM164.973 39.8672V61H159.329V39.8672H164.973ZM158.977 34.3594C158.977 33.5391 159.264 32.862 159.837 32.3281C160.41 31.7943 161.178 31.5273 162.141 31.5273C163.092 31.5273 163.854 31.7943 164.427 32.3281C165.013 32.862 165.305 33.5391 165.305 34.3594C165.305 35.1797 165.013 35.8568 164.427 36.3906C163.854 36.9245 163.092 37.1914 162.141 37.1914C161.178 37.1914 160.41 36.9245 159.837 36.3906C159.264 35.8568 158.977 35.1797 158.977 34.3594ZM180.573 39.8672V43.8516H168.269V39.8672H180.573ZM171.316 34.6523H176.941V54.6328C176.941 55.2448 177.019 55.7135 177.175 56.0391C177.344 56.3646 177.592 56.5924 177.917 56.7227C178.243 56.8398 178.653 56.8984 179.148 56.8984C179.499 56.8984 179.812 56.8854 180.085 56.8594C180.372 56.8203 180.612 56.7812 180.808 56.7422L180.827 60.8828C180.346 61.0391 179.825 61.1628 179.265 61.2539C178.705 61.3451 178.086 61.3906 177.409 61.3906C176.172 61.3906 175.092 61.1888 174.167 60.7852C173.256 60.3685 172.553 59.7044 172.058 58.793C171.563 57.8815 171.316 56.6836 171.316 55.1992V34.6523ZM200.562 43.9297V69.125H194.938V39.8672H200.152L200.562 43.9297ZM213.941 50.1992V50.6094C213.941 52.1458 213.759 53.5716 213.395 54.8867C213.043 56.2018 212.522 57.3477 211.832 58.3242C211.142 59.2878 210.283 60.043 209.254 60.5898C208.238 61.1237 207.066 61.3906 205.738 61.3906C204.449 61.3906 203.329 61.1302 202.379 60.6094C201.428 60.0885 200.628 59.3594 199.977 58.4219C199.339 57.4714 198.824 56.3711 198.434 55.1211C198.043 53.8711 197.743 52.5299 197.535 51.0977V50.0234C197.743 48.487 198.043 47.0807 198.434 45.8047C198.824 44.5156 199.339 43.4023 199.977 42.4648C200.628 41.5143 201.422 40.7786 202.359 40.2578C203.31 39.737 204.423 39.4766 205.699 39.4766C207.04 39.4766 208.219 39.7305 209.234 40.2383C210.263 40.7461 211.122 41.4753 211.812 42.4258C212.516 43.3763 213.043 44.5091 213.395 45.8242C213.759 47.1393 213.941 48.5977 213.941 50.1992ZM208.297 50.6094V50.1992C208.297 49.3008 208.219 48.474 208.062 47.7188C207.919 46.9505 207.685 46.2799 207.359 45.707C207.047 45.1341 206.63 44.6914 206.109 44.3789C205.602 44.0534 204.983 43.8906 204.254 43.8906C203.486 43.8906 202.828 44.0143 202.281 44.2617C201.747 44.5091 201.311 44.8672 200.973 45.3359C200.634 45.8047 200.38 46.3646 200.211 47.0156C200.042 47.6667 199.938 48.4023 199.898 49.2227V51.9375C199.964 52.901 200.146 53.7669 200.445 54.5352C200.745 55.2904 201.207 55.8893 201.832 56.332C202.457 56.7747 203.277 56.9961 204.293 56.9961C205.035 56.9961 205.66 56.8333 206.168 56.5078C206.676 56.1693 207.086 55.707 207.398 55.1211C207.724 54.5352 207.952 53.8581 208.082 53.0898C208.225 52.3216 208.297 51.4948 208.297 50.6094ZM223.662 44.4766V61H218.037V39.8672H223.33L223.662 44.4766ZM230.03 39.7305L229.932 44.9453C229.659 44.9062 229.327 44.8737 228.936 44.8477C228.558 44.8086 228.213 44.7891 227.901 44.7891C227.107 44.7891 226.416 44.8932 225.83 45.1016C225.258 45.2969 224.776 45.5898 224.385 45.9805C224.008 46.3711 223.721 46.8464 223.526 47.4062C223.343 47.9661 223.239 48.6042 223.213 49.3203L222.08 48.9688C222.08 47.6016 222.217 46.3451 222.491 45.1992C222.764 44.0404 223.161 43.0312 223.682 42.1719C224.216 41.3125 224.867 40.6484 225.635 40.1797C226.403 39.7109 227.282 39.4766 228.272 39.4766C228.584 39.4766 228.903 39.5026 229.229 39.5547C229.554 39.5938 229.821 39.6523 230.03 39.7305ZM231.802 50.6484V50.2383C231.802 48.6888 232.023 47.263 232.466 45.9609C232.908 44.6458 233.553 43.5065 234.399 42.543C235.246 41.5794 236.287 40.8307 237.524 40.2969C238.761 39.75 240.18 39.4766 241.782 39.4766C243.384 39.4766 244.809 39.75 246.059 40.2969C247.309 40.8307 248.358 41.5794 249.204 42.543C250.063 43.5065 250.714 44.6458 251.157 45.9609C251.6 47.263 251.821 48.6888 251.821 50.2383V50.6484C251.821 52.1849 251.6 53.6107 251.157 54.9258C250.714 56.2279 250.063 57.3672 249.204 58.3438C248.358 59.3073 247.316 60.056 246.079 60.5898C244.842 61.1237 243.423 61.3906 241.821 61.3906C240.22 61.3906 238.794 61.1237 237.544 60.5898C236.307 60.056 235.259 59.3073 234.399 58.3438C233.553 57.3672 232.908 56.2279 232.466 54.9258C232.023 53.6107 231.802 52.1849 231.802 50.6484ZM237.427 50.2383V50.6484C237.427 51.5339 237.505 52.3607 237.661 53.1289C237.817 53.8971 238.065 54.5742 238.403 55.1602C238.755 55.7331 239.21 56.1823 239.77 56.5078C240.33 56.8333 241.014 56.9961 241.821 56.9961C242.602 56.9961 243.273 56.8333 243.833 56.5078C244.393 56.1823 244.842 55.7331 245.18 55.1602C245.519 54.5742 245.766 53.8971 245.923 53.1289C246.092 52.3607 246.177 51.5339 246.177 50.6484V50.2383C246.177 49.3789 246.092 48.5716 245.923 47.8164C245.766 47.0482 245.512 46.3711 245.161 45.7852C244.822 45.1862 244.373 44.7174 243.813 44.3789C243.253 44.0404 242.576 43.8711 241.782 43.8711C240.988 43.8711 240.311 44.0404 239.751 44.3789C239.204 44.7174 238.755 45.1862 238.403 45.7852C238.065 46.3711 237.817 47.0482 237.661 47.8164C237.505 48.5716 237.427 49.3789 237.427 50.2383ZM262.909 61H257.265V38.9102C257.265 37.1133 257.629 35.5964 258.359 34.3594C259.101 33.1224 260.155 32.1849 261.523 31.5469C262.903 30.9089 264.57 30.5898 266.523 30.5898C267.629 30.5898 268.704 30.7005 269.745 30.9219C270.787 31.1302 271.861 31.4036 272.968 31.7422L272.148 36.2539C271.432 36.0326 270.663 35.8242 269.843 35.6289C269.023 35.4336 268.033 35.3359 266.874 35.3359C265.572 35.3359 264.583 35.6419 263.905 36.2539C263.241 36.8529 262.909 37.7383 262.909 38.9102V61ZM267.109 39.8672V43.8516H254.12V39.8672H267.109ZM275.585 39.8672V61H269.941V39.8672H275.585ZM286.83 31V61H281.185V31H286.83ZM301.805 61.3906C300.164 61.3906 298.693 61.1302 297.391 60.6094C296.089 60.0755 294.982 59.3398 294.07 58.4023C293.172 57.4648 292.482 56.3776 292 55.1406C291.518 53.8906 291.277 52.5625 291.277 51.1562V50.375C291.277 48.7734 291.505 47.3086 291.961 45.9805C292.417 44.6523 293.068 43.5 293.914 42.5234C294.773 41.5469 295.815 40.7982 297.039 40.2773C298.263 39.7435 299.643 39.4766 301.18 39.4766C302.677 39.4766 304.005 39.724 305.164 40.2188C306.323 40.7135 307.293 41.4167 308.074 42.3281C308.868 43.2396 309.467 44.3333 309.871 45.6094C310.275 46.8724 310.477 48.2786 310.477 49.8281V52.1719H293.68V48.4219H304.949V47.9922C304.949 47.2109 304.806 46.5143 304.52 45.9023C304.246 45.2773 303.829 44.7826 303.27 44.418C302.71 44.0534 301.993 43.8711 301.121 43.8711C300.379 43.8711 299.741 44.0339 299.207 44.3594C298.673 44.6849 298.237 45.1406 297.898 45.7266C297.573 46.3125 297.326 47.0026 297.156 47.7969C297 48.5781 296.922 49.4375 296.922 50.375V51.1562C296.922 52.0026 297.039 52.7839 297.273 53.5C297.521 54.2161 297.866 54.8346 298.309 55.3555C298.764 55.8763 299.311 56.2799 299.949 56.5664C300.6 56.8529 301.336 56.9961 302.156 56.9961C303.172 56.9961 304.116 56.8008 304.988 56.4102C305.874 56.0065 306.635 55.401 307.273 54.5938L310.008 57.5625C309.565 58.2005 308.96 58.8125 308.191 59.3984C307.436 59.9844 306.525 60.4661 305.457 60.8438C304.389 61.2083 303.172 61.3906 301.805 61.3906Z" fill="white"/>
</svg>
