<svg width="437" height="94" viewBox="0 0 437 94" fill="none" xmlns="http://www.w3.org/2000/svg">
<rect width="437" height="94" rx="21" fill="#262626"/>
<path d="M130.398 32.5625V61H124.539V32.5625H130.398ZM141.727 44.7109V49.2812H128.797V44.7109H141.727ZM143.094 32.5625V37.1523H128.797V32.5625H143.094ZM145.413 50.6484V50.2383C145.413 48.6888 145.634 47.263 146.077 45.9609C146.519 44.6458 147.164 43.5065 148.01 42.543C148.857 41.5794 149.898 40.8307 151.135 40.2969C152.372 39.75 153.791 39.4766 155.393 39.4766C156.995 39.4766 158.42 39.75 159.67 40.2969C160.92 40.8307 161.968 41.5794 162.815 42.543C163.674 43.5065 164.325 44.6458 164.768 45.9609C165.211 47.263 165.432 48.6888 165.432 50.2383V50.6484C165.432 52.1849 165.211 53.6107 164.768 54.9258C164.325 56.2279 163.674 57.3672 162.815 58.3438C161.968 59.3073 160.927 60.056 159.69 60.5898C158.453 61.1237 157.034 61.3906 155.432 61.3906C153.83 61.3906 152.405 61.1237 151.155 60.5898C149.918 60.056 148.87 59.3073 148.01 58.3438C147.164 57.3672 146.519 56.2279 146.077 54.9258C145.634 53.6107 145.413 52.1849 145.413 50.6484ZM151.038 50.2383V50.6484C151.038 51.5339 151.116 52.3607 151.272 53.1289C151.428 53.8971 151.676 54.5742 152.014 55.1602C152.366 55.7331 152.821 56.1823 153.381 56.5078C153.941 56.8333 154.625 56.9961 155.432 56.9961C156.213 56.9961 156.884 56.8333 157.444 56.5078C158.004 56.1823 158.453 55.7331 158.791 55.1602C159.13 54.5742 159.377 53.8971 159.534 53.1289C159.703 52.3607 159.788 51.5339 159.788 50.6484V50.2383C159.788 49.3789 159.703 48.5716 159.534 47.8164C159.377 47.0482 159.123 46.3711 158.772 45.7852C158.433 45.1862 157.984 44.7174 157.424 44.3789C156.864 44.0404 156.187 43.8711 155.393 43.8711C154.599 43.8711 153.922 44.0404 153.362 44.3789C152.815 44.7174 152.366 45.1862 152.014 45.7852C151.676 46.3711 151.428 47.0482 151.272 47.8164C151.116 48.5716 151.038 49.3789 151.038 50.2383ZM175.427 31V61H169.782V31H175.427ZM186.612 31V61H180.968V31H186.612ZM190.963 50.6484V50.2383C190.963 48.6888 191.184 47.263 191.627 45.9609C192.069 44.6458 192.714 43.5065 193.56 42.543C194.407 41.5794 195.448 40.8307 196.685 40.2969C197.922 39.75 199.341 39.4766 200.943 39.4766C202.545 39.4766 203.97 39.75 205.22 40.2969C206.47 40.8307 207.518 41.5794 208.365 42.543C209.224 43.5065 209.875 44.6458 210.318 45.9609C210.761 47.263 210.982 48.6888 210.982 50.2383V50.6484C210.982 52.1849 210.761 53.6107 210.318 54.9258C209.875 56.2279 209.224 57.3672 208.365 58.3438C207.518 59.3073 206.477 60.056 205.24 60.5898C204.003 61.1237 202.584 61.3906 200.982 61.3906C199.38 61.3906 197.955 61.1237 196.705 60.5898C195.468 60.056 194.42 59.3073 193.56 58.3438C192.714 57.3672 192.069 56.2279 191.627 54.9258C191.184 53.6107 190.963 52.1849 190.963 50.6484ZM196.588 50.2383V50.6484C196.588 51.5339 196.666 52.3607 196.822 53.1289C196.978 53.8971 197.226 54.5742 197.564 55.1602C197.916 55.7331 198.371 56.1823 198.931 56.5078C199.491 56.8333 200.175 56.9961 200.982 56.9961C201.763 56.9961 202.434 56.8333 202.994 56.5078C203.554 56.1823 204.003 55.7331 204.341 55.1602C204.68 54.5742 204.927 53.8971 205.084 53.1289C205.253 52.3607 205.338 51.5339 205.338 50.6484V50.2383C205.338 49.3789 205.253 48.5716 205.084 47.8164C204.927 47.0482 204.673 46.3711 204.322 45.7852C203.983 45.1862 203.534 44.7174 202.974 44.3789C202.414 44.0404 201.737 43.8711 200.943 43.8711C200.149 43.8711 199.472 44.0404 198.912 44.3789C198.365 44.7174 197.916 45.1862 197.564 45.7852C197.226 46.3711 196.978 47.0482 196.822 47.8164C196.666 48.5716 196.588 49.3789 196.588 50.2383ZM221.074 55.5312L225.469 39.8672H229.043L227.891 46.0195L223.496 61H220.508L221.074 55.5312ZM218.848 39.8672L221.992 55.5117L222.285 61H218.77L213.418 39.8672H218.848ZM233.066 55.2578L236.133 39.8672H241.582L236.23 61H232.734L233.066 55.2578ZM229.531 39.8672L233.906 55.4141L234.512 61H231.504L227.109 46.0391L225.996 39.8672H229.531ZM250.952 39.8672V61H245.307V39.8672H250.952ZM244.955 34.3594C244.955 33.5391 245.242 32.862 245.815 32.3281C246.388 31.7943 247.156 31.5273 248.12 31.5273C249.07 31.5273 249.832 31.7943 250.405 32.3281C250.991 32.862 251.284 33.5391 251.284 34.3594C251.284 35.1797 250.991 35.8568 250.405 36.3906C249.832 36.9245 249.07 37.1914 248.12 37.1914C247.156 37.1914 246.388 36.9245 245.815 36.3906C245.242 35.8568 244.955 35.1797 244.955 34.3594ZM261.708 44.3789V61H256.083V39.8672H261.356L261.708 44.3789ZM260.887 49.6914H259.364C259.364 48.1289 259.566 46.7227 259.97 45.4727C260.373 44.2096 260.94 43.1354 261.669 42.25C262.398 41.3516 263.264 40.668 264.266 40.1992C265.282 39.7174 266.415 39.4766 267.665 39.4766C268.654 39.4766 269.559 39.6198 270.38 39.9062C271.2 40.1927 271.903 40.6484 272.489 41.2734C273.088 41.8984 273.544 42.7253 273.856 43.7539C274.182 44.7826 274.345 46.0391 274.345 47.5234V61H268.68V47.5039C268.68 46.5664 268.55 45.8372 268.29 45.3164C268.029 44.7956 267.645 44.431 267.137 44.2227C266.643 44.0013 266.031 43.8906 265.302 43.8906C264.546 43.8906 263.889 44.0404 263.329 44.3398C262.782 44.6393 262.326 45.056 261.962 45.5898C261.61 46.1107 261.343 46.7227 261.161 47.4258C260.979 48.1289 260.887 48.8841 260.887 49.6914ZM292.601 39.8672H297.698V60.2969C297.698 62.224 297.269 63.8581 296.409 65.1992C295.563 66.5534 294.378 67.5755 292.855 68.2656C291.331 68.9688 289.56 69.3203 287.542 69.3203C286.657 69.3203 285.719 69.2031 284.73 68.9688C283.753 68.7344 282.816 68.3698 281.917 67.875C281.032 67.3802 280.29 66.7552 279.691 66L282.171 62.6797C282.822 63.4349 283.577 64.0208 284.437 64.4375C285.296 64.8672 286.247 65.082 287.288 65.082C288.304 65.082 289.163 64.8932 289.866 64.5156C290.57 64.151 291.11 63.6107 291.488 62.8945C291.865 62.1914 292.054 61.3385 292.054 60.3359V44.75L292.601 39.8672ZM278.382 50.6875V50.2773C278.382 48.6628 278.577 47.1979 278.968 45.8828C279.372 44.5547 279.938 43.4154 280.667 42.4648C281.409 41.5143 282.308 40.7786 283.363 40.2578C284.417 39.737 285.609 39.4766 286.937 39.4766C288.343 39.4766 289.521 39.737 290.472 40.2578C291.422 40.7786 292.204 41.5208 292.816 42.4844C293.428 43.4349 293.903 44.5612 294.241 45.8633C294.593 47.1523 294.866 48.5651 295.062 50.1016V51C294.866 52.4714 294.573 53.8385 294.183 55.1016C293.792 56.3646 293.278 57.4714 292.64 58.4219C292.002 59.3594 291.208 60.0885 290.257 60.6094C289.32 61.1302 288.2 61.3906 286.898 61.3906C285.596 61.3906 284.417 61.1237 283.363 60.5898C282.321 60.056 281.429 59.3073 280.687 58.3438C279.945 57.3802 279.372 56.2474 278.968 54.9453C278.577 53.6432 278.382 52.224 278.382 50.6875ZM284.007 50.2773V50.6875C284.007 51.5599 284.092 52.3737 284.261 53.1289C284.43 53.8841 284.691 54.5547 285.042 55.1406C285.407 55.7135 285.856 56.1628 286.39 56.4883C286.937 56.8008 287.581 56.957 288.323 56.957C289.352 56.957 290.192 56.7422 290.843 56.3125C291.494 55.8698 291.982 55.2643 292.308 54.4961C292.633 53.7279 292.822 52.8424 292.874 51.8398V49.2812C292.848 48.4609 292.738 47.7253 292.542 47.0742C292.347 46.4102 292.073 45.8438 291.722 45.375C291.37 44.9062 290.915 44.5417 290.355 44.2812C289.795 44.0208 289.131 43.8906 288.363 43.8906C287.62 43.8906 286.976 44.0599 286.429 44.3984C285.895 44.724 285.446 45.1732 285.081 45.7461C284.73 46.319 284.463 46.9961 284.28 47.7773C284.098 48.5456 284.007 49.3789 284.007 50.2773Z" fill="white"/>
</svg>
