<svg width="437" height="94" viewBox="0 0 437 94" fill="none" xmlns="http://www.w3.org/2000/svg">
<rect width="437" height="94" rx="21" fill="#262626"/>
<path d="M109.344 53.5586C109.344 53.0508 109.266 52.5951 109.109 52.1914C108.966 51.7747 108.693 51.3971 108.289 51.0586C107.885 50.707 107.319 50.362 106.59 50.0234C105.861 49.6849 104.917 49.3333 103.758 48.9688C102.469 48.5521 101.245 48.0833 100.086 47.5625C98.9401 47.0417 97.9245 46.4362 97.0391 45.7461C96.1667 45.043 95.4766 44.2292 94.9688 43.3047C94.474 42.3802 94.2266 41.306 94.2266 40.082C94.2266 38.8971 94.487 37.8229 95.0078 36.8594C95.5286 35.8828 96.2578 35.0495 97.1953 34.3594C98.1328 33.6562 99.2396 33.1159 100.516 32.7383C101.805 32.3607 103.217 32.1719 104.754 32.1719C106.85 32.1719 108.68 32.5495 110.242 33.3047C111.805 34.0599 113.016 35.0951 113.875 36.4102C114.747 37.7253 115.184 39.2292 115.184 40.9219H109.363C109.363 40.0885 109.188 39.3594 108.836 38.7344C108.497 38.0964 107.977 37.5951 107.273 37.2305C106.583 36.8659 105.711 36.6836 104.656 36.6836C103.641 36.6836 102.794 36.8398 102.117 37.1523C101.44 37.4518 100.932 37.862 100.594 38.3828C100.255 38.8906 100.086 39.4635 100.086 40.1016C100.086 40.5833 100.203 41.0195 100.438 41.4102C100.685 41.8008 101.049 42.1654 101.531 42.5039C102.013 42.8424 102.605 43.1615 103.309 43.4609C104.012 43.7604 104.826 44.0534 105.75 44.3398C107.299 44.8086 108.66 45.3359 109.832 45.9219C111.017 46.5078 112.007 47.1654 112.801 47.8945C113.595 48.6237 114.194 49.4505 114.598 50.375C115.001 51.2995 115.203 52.3477 115.203 53.5195C115.203 54.7565 114.962 55.8633 114.48 56.8398C113.999 57.8164 113.302 58.6432 112.391 59.3203C111.479 59.9974 110.392 60.5117 109.129 60.8633C107.866 61.2148 106.453 61.3906 104.891 61.3906C103.484 61.3906 102.098 61.2083 100.73 60.8438C99.3633 60.4661 98.1198 59.8997 97 59.1445C95.8932 58.3893 95.0078 57.4258 94.3438 56.2539C93.6797 55.082 93.3477 53.6953 93.3477 52.0938H99.2266C99.2266 52.9792 99.3633 53.7279 99.6367 54.3398C99.9102 54.9518 100.294 55.4466 100.789 55.8242C101.297 56.2018 101.896 56.4753 102.586 56.6445C103.289 56.8138 104.057 56.8984 104.891 56.8984C105.906 56.8984 106.74 56.7552 107.391 56.4688C108.055 56.1823 108.543 55.7852 108.855 55.2773C109.181 54.7695 109.344 54.1966 109.344 53.5586ZM124.924 31V61H119.299V31H124.924ZM124.123 49.6914H122.58C122.593 48.2201 122.789 46.8659 123.166 45.6289C123.544 44.3789 124.084 43.2982 124.788 42.3867C125.491 41.4622 126.33 40.7461 127.307 40.2383C128.297 39.7305 129.39 39.4766 130.588 39.4766C131.63 39.4766 132.574 39.6263 133.42 39.9258C134.28 40.2122 135.015 40.681 135.627 41.332C136.252 41.9701 136.734 42.8099 137.073 43.8516C137.411 44.8932 137.58 46.1562 137.58 47.6406V61H131.916V47.6016C131.916 46.6641 131.78 45.9284 131.506 45.3945C131.246 44.8477 130.862 44.4635 130.354 44.2422C129.859 44.0078 129.247 43.8906 128.518 43.8906C127.711 43.8906 127.021 44.0404 126.448 44.3398C125.888 44.6393 125.439 45.056 125.1 45.5898C124.761 46.1107 124.514 46.7227 124.358 47.4258C124.202 48.1289 124.123 48.8841 124.123 49.6914ZM153.864 56.2344V46.8203C153.864 46.1432 153.753 45.5638 153.532 45.082C153.311 44.5872 152.966 44.2031 152.497 43.9297C152.041 43.6562 151.449 43.5195 150.72 43.5195C150.095 43.5195 149.554 43.6302 149.098 43.8516C148.643 44.0599 148.291 44.3659 148.044 44.7695C147.796 45.1602 147.673 45.6224 147.673 46.1562H142.048C142.048 45.2578 142.256 44.4049 142.673 43.5977C143.089 42.7904 143.695 42.0807 144.489 41.4688C145.283 40.8438 146.227 40.3555 147.321 40.0039C148.428 39.6523 149.665 39.4766 151.032 39.4766C152.673 39.4766 154.131 39.75 155.407 40.2969C156.683 40.8438 157.686 41.6641 158.415 42.7578C159.157 43.8516 159.528 45.2188 159.528 46.8594V55.9023C159.528 57.0612 159.6 58.0117 159.743 58.7539C159.886 59.4831 160.095 60.1211 160.368 60.668V61H154.684C154.411 60.4271 154.203 59.7109 154.059 58.8516C153.929 57.9792 153.864 57.1068 153.864 56.2344ZM154.606 48.1289L154.645 51.3125H151.501C150.759 51.3125 150.114 51.3971 149.567 51.5664C149.02 51.7357 148.571 51.9766 148.22 52.2891C147.868 52.5885 147.608 52.9401 147.438 53.3438C147.282 53.7474 147.204 54.1901 147.204 54.6719C147.204 55.1536 147.315 55.5898 147.536 55.9805C147.757 56.3581 148.076 56.6576 148.493 56.8789C148.91 57.0872 149.398 57.1914 149.958 57.1914C150.804 57.1914 151.54 57.0221 152.165 56.6836C152.79 56.3451 153.272 55.9284 153.61 55.4336C153.962 54.9388 154.144 54.4701 154.157 54.0273L155.641 56.4102C155.433 56.944 155.147 57.4974 154.782 58.0703C154.43 58.6432 153.981 59.1836 153.434 59.6914C152.888 60.1862 152.23 60.5964 151.462 60.9219C150.693 61.2344 149.782 61.3906 148.727 61.3906C147.386 61.3906 146.169 61.1237 145.075 60.5898C143.994 60.043 143.135 59.2943 142.497 58.3438C141.872 57.3802 141.559 56.2865 141.559 55.0625C141.559 53.9557 141.768 52.9727 142.184 52.1133C142.601 51.2539 143.213 50.5312 144.02 49.9453C144.841 49.3464 145.863 48.8971 147.087 48.5977C148.311 48.2852 149.73 48.1289 151.345 48.1289H154.606ZM170.089 44.4766V61H164.464V39.8672H169.757L170.089 44.4766ZM176.456 39.7305L176.359 44.9453C176.085 44.9062 175.753 44.8737 175.363 44.8477C174.985 44.8086 174.64 44.7891 174.327 44.7891C173.533 44.7891 172.843 44.8932 172.257 45.1016C171.684 45.2969 171.202 45.5898 170.812 45.9805C170.434 46.3711 170.148 46.8464 169.952 47.4062C169.77 47.9661 169.666 48.6042 169.64 49.3203L168.507 48.9688C168.507 47.6016 168.644 46.3451 168.917 45.1992C169.191 44.0404 169.588 43.0312 170.109 42.1719C170.642 41.3125 171.293 40.6484 172.062 40.1797C172.83 39.7109 173.709 39.4766 174.698 39.4766C175.011 39.4766 175.33 39.5026 175.655 39.5547C175.981 39.5938 176.248 39.6523 176.456 39.7305ZM189.048 61.3906C187.408 61.3906 185.936 61.1302 184.634 60.6094C183.332 60.0755 182.226 59.3398 181.314 58.4023C180.416 57.4648 179.726 56.3776 179.244 55.1406C178.762 53.8906 178.521 52.5625 178.521 51.1562V50.375C178.521 48.7734 178.749 47.3086 179.205 45.9805C179.66 44.6523 180.311 43.5 181.158 42.5234C182.017 41.5469 183.059 40.7982 184.283 40.2773C185.507 39.7435 186.887 39.4766 188.423 39.4766C189.921 39.4766 191.249 39.724 192.408 40.2188C193.567 40.7135 194.537 41.4167 195.318 42.3281C196.112 43.2396 196.711 44.3333 197.115 45.6094C197.518 46.8724 197.72 48.2786 197.72 49.8281V52.1719H180.923V48.4219H192.193V47.9922C192.193 47.2109 192.05 46.5143 191.763 45.9023C191.49 45.2773 191.073 44.7826 190.513 44.418C189.953 44.0534 189.237 43.8711 188.365 43.8711C187.623 43.8711 186.985 44.0339 186.451 44.3594C185.917 44.6849 185.481 45.1406 185.142 45.7266C184.817 46.3125 184.569 47.0026 184.4 47.7969C184.244 48.5781 184.166 49.4375 184.166 50.375V51.1562C184.166 52.0026 184.283 52.7839 184.517 53.5C184.765 54.2161 185.11 54.8346 185.552 55.3555C186.008 55.8763 186.555 56.2799 187.193 56.5664C187.844 56.8529 188.58 56.9961 189.4 56.9961C190.416 56.9961 191.36 56.8008 192.232 56.4102C193.117 56.0065 193.879 55.401 194.517 54.5938L197.252 57.5625C196.809 58.2005 196.203 58.8125 195.435 59.3984C194.68 59.9844 193.768 60.4661 192.701 60.8438C191.633 61.2083 190.416 61.3906 189.048 61.3906ZM223.51 50.8633H216.264V46.293H223.51C224.63 46.293 225.541 46.1107 226.245 45.7461C226.948 45.3685 227.462 44.8477 227.787 44.1836C228.113 43.5195 228.276 42.7708 228.276 41.9375C228.276 41.0911 228.113 40.3034 227.787 39.5742C227.462 38.8451 226.948 38.2591 226.245 37.8164C225.541 37.3737 224.63 37.1523 223.51 37.1523H218.295V61H212.436V32.5625H223.51C225.737 32.5625 227.644 32.9661 229.233 33.7734C230.834 34.5677 232.058 35.668 232.905 37.0742C233.751 38.4805 234.174 40.0885 234.174 41.8984C234.174 43.7344 233.751 45.3229 232.905 46.6641C232.058 48.0052 230.834 49.0404 229.233 49.7695C227.644 50.4987 225.737 50.8633 223.51 50.8633ZM244.091 44.4766V61H238.466V39.8672H243.759L244.091 44.4766ZM250.458 39.7305L250.36 44.9453C250.087 44.9062 249.755 44.8737 249.364 44.8477C248.986 44.8086 248.641 44.7891 248.329 44.7891C247.535 44.7891 246.845 44.8932 246.259 45.1016C245.686 45.2969 245.204 45.5898 244.813 45.9805C244.436 46.3711 244.149 46.8464 243.954 47.4062C243.772 47.9661 243.667 48.6042 243.641 49.3203L242.509 48.9688C242.509 47.6016 242.645 46.3451 242.919 45.1992C243.192 44.0404 243.589 43.0312 244.11 42.1719C244.644 41.3125 245.295 40.6484 246.063 40.1797C246.832 39.7109 247.71 39.4766 248.7 39.4766C249.012 39.4766 249.332 39.5026 249.657 39.5547C249.983 39.5938 250.249 39.6523 250.458 39.7305ZM252.23 50.6484V50.2383C252.23 48.6888 252.451 47.263 252.894 45.9609C253.336 44.6458 253.981 43.5065 254.827 42.543C255.674 41.5794 256.715 40.8307 257.952 40.2969C259.189 39.75 260.609 39.4766 262.21 39.4766C263.812 39.4766 265.238 39.75 266.488 40.2969C267.738 40.8307 268.786 41.5794 269.632 42.543C270.491 43.5065 271.142 44.6458 271.585 45.9609C272.028 47.263 272.249 48.6888 272.249 50.2383V50.6484C272.249 52.1849 272.028 53.6107 271.585 54.9258C271.142 56.2279 270.491 57.3672 269.632 58.3438C268.786 59.3073 267.744 60.056 266.507 60.5898C265.27 61.1237 263.851 61.3906 262.249 61.3906C260.648 61.3906 259.222 61.1237 257.972 60.5898C256.735 60.056 255.687 59.3073 254.827 58.3438C253.981 57.3672 253.336 56.2279 252.894 54.9258C252.451 53.6107 252.23 52.1849 252.23 50.6484ZM257.855 50.2383V50.6484C257.855 51.5339 257.933 52.3607 258.089 53.1289C258.245 53.8971 258.493 54.5742 258.831 55.1602C259.183 55.7331 259.639 56.1823 260.198 56.5078C260.758 56.8333 261.442 56.9961 262.249 56.9961C263.03 56.9961 263.701 56.8333 264.261 56.5078C264.821 56.1823 265.27 55.7331 265.609 55.1602C265.947 54.5742 266.195 53.8971 266.351 53.1289C266.52 52.3607 266.605 51.5339 266.605 50.6484V50.2383C266.605 49.3789 266.52 48.5716 266.351 47.8164C266.195 47.0482 265.941 46.3711 265.589 45.7852C265.251 45.1862 264.801 44.7174 264.241 44.3789C263.682 44.0404 263.004 43.8711 262.21 43.8711C261.416 43.8711 260.739 44.0404 260.179 44.3789C259.632 44.7174 259.183 45.1862 258.831 45.7852C258.493 46.3711 258.245 47.0482 258.089 47.8164C257.933 48.5716 257.855 49.3789 257.855 50.2383ZM283.337 61H277.693V38.9102C277.693 37.1133 278.058 35.5964 278.787 34.3594C279.529 33.1224 280.584 32.1849 281.951 31.5469C283.331 30.9089 284.998 30.5898 286.951 30.5898C288.058 30.5898 289.132 30.7005 290.173 30.9219C291.215 31.1302 292.289 31.4036 293.396 31.7422L292.576 36.2539C291.86 36.0326 291.091 35.8242 290.271 35.6289C289.451 35.4336 288.461 35.3359 287.302 35.3359C286 35.3359 285.011 35.6419 284.334 36.2539C283.67 36.8529 283.337 37.7383 283.337 38.9102V61ZM287.537 39.8672V43.8516H274.548V39.8672H287.537ZM296.013 39.8672V61H290.369V39.8672H296.013ZM307.258 31V61H301.613V31H307.258ZM322.233 61.3906C320.592 61.3906 319.121 61.1302 317.819 60.6094C316.517 60.0755 315.41 59.3398 314.498 58.4023C313.6 57.4648 312.91 56.3776 312.428 55.1406C311.946 53.8906 311.705 52.5625 311.705 51.1562V50.375C311.705 48.7734 311.933 47.3086 312.389 45.9805C312.845 44.6523 313.496 43.5 314.342 42.5234C315.202 41.5469 316.243 40.7982 317.467 40.2773C318.691 39.7435 320.071 39.4766 321.608 39.4766C323.105 39.4766 324.433 39.724 325.592 40.2188C326.751 40.7135 327.721 41.4167 328.502 42.3281C329.297 43.2396 329.896 44.3333 330.299 45.6094C330.703 46.8724 330.905 48.2786 330.905 49.8281V52.1719H314.108V48.4219H325.377V47.9922C325.377 47.2109 325.234 46.5143 324.948 45.9023C324.674 45.2773 324.258 44.7826 323.698 44.418C323.138 44.0534 322.422 43.8711 321.549 43.8711C320.807 43.8711 320.169 44.0339 319.635 44.3594C319.101 44.6849 318.665 45.1406 318.327 45.7266C318.001 46.3125 317.754 47.0026 317.584 47.7969C317.428 48.5781 317.35 49.4375 317.35 50.375V51.1562C317.35 52.0026 317.467 52.7839 317.702 53.5C317.949 54.2161 318.294 54.8346 318.737 55.3555C319.192 55.8763 319.739 56.2799 320.377 56.5664C321.028 56.8529 321.764 56.9961 322.584 56.9961C323.6 56.9961 324.544 56.8008 325.416 56.4102C326.302 56.0065 327.064 55.401 327.702 54.5938L330.436 57.5625C329.993 58.2005 329.388 58.8125 328.62 59.3984C327.864 59.9844 326.953 60.4661 325.885 60.8438C324.817 61.2083 323.6 61.3906 322.233 61.3906Z" fill="white"/>
</svg>
