<svg width="47" height="49" viewBox="0 0 47 49" fill="none" xmlns="http://www.w3.org/2000/svg">
<path fill-rule="evenodd" clip-rule="evenodd" d="M46.6667 2.06154V0L44.6667 0.499965L23.3334 5.8329L2 0.49999L0 3.07014e-05V2.06157V41.3646L21.2119 47.551L21.2119 47.5965L23.2592 48.1921L23.3347 48.1701L23.4323 48.1985L25.4551 47.6081V47.5516L33.9401 45.077L46.6667 41.365V2.06154ZM25.4551 45.4683L33.3801 43.157L33.3802 43.157L44.6667 39.865V2.56151L25.4551 7.36406V45.4683ZM21.2115 7.36403L2 2.56153V39.8646L21.2115 45.4675V45.077V27.5761V7.36403ZM23.2115 46.0508V45.077V27.5761V7.92491L23.3334 7.89445L23.4551 7.92487V46.0516L23.3347 46.0867L23.2115 46.0508Z" fill="white"/>
<path d="M8.48535 13.9645C8.48535 13.3279 9.07237 12.8533 9.69488 12.9867L16.1799 14.3764C16.641 14.4752 16.9704 14.8826 16.9704 15.3542V21.7938C16.9704 22.4305 16.3834 22.905 15.7609 22.7716L9.27582 21.382C8.81475 21.2832 8.48535 20.8757 8.48535 20.4042V13.9645Z" fill="white"/>
<path d="M38.1826 13.9722C38.1826 13.3331 37.5913 12.858 36.9672 12.9956L30.4822 14.4262C30.0239 14.5273 29.6976 14.9334 29.6976 15.4027V22.0892C29.6976 22.7283 30.2889 23.2034 30.913 23.0657L37.398 21.6352C37.8563 21.5341 38.1826 21.128 38.1826 20.6587V13.9722Z" fill="white"/>
<path d="M8.48535 30.3381C8.48535 30.0129 8.79105 29.7742 9.10662 29.8531L16.5917 31.7243C16.8142 31.78 16.9704 31.98 16.9704 32.2094V35.4211C16.9704 35.7464 16.6647 35.9851 16.3491 35.9062L8.86408 34.035C8.6415 33.9793 8.48535 33.7793 8.48535 33.5499V30.3381Z" fill="white"/>
<path d="M38.1826 26.0955C38.1826 25.7702 37.8769 25.5315 37.5613 25.6104L30.0763 27.4817C29.8537 27.5373 29.6976 27.7373 29.6976 27.9667V31.1785C29.6976 31.5038 30.0033 31.7424 30.3188 31.6635L37.8039 29.7923C38.0265 29.7366 38.1826 29.5366 38.1826 29.3072V26.0955Z" fill="white"/>
<path d="M38.1826 32.4592C38.1826 32.134 37.8769 31.8953 37.5613 31.9742L30.0763 33.8454C29.8537 33.9011 29.6976 34.1011 29.6976 34.3305V37.5422C29.6976 37.8675 30.0033 38.1062 30.3188 38.0273L37.8039 36.156C38.0265 36.1004 38.1826 35.9004 38.1826 35.671V32.4592Z" fill="white"/>
<rect x="22" y="7" width="2" height="40" fill="white"/>
</svg>
