<svg width="58" height="58" viewBox="0 0 58 58" fill="none" xmlns="http://www.w3.org/2000/svg">
<path d="M46.3747 21.3721C45.7967 19.9933 44.9634 18.7439 43.9214 17.6937C42.8786 16.6404 41.649 15.8033 40.2997 15.228C38.9005 14.6292 37.3998 14.3226 35.8847 14.3262C33.7591 14.3262 31.6852 14.926 29.883 16.0588C29.4518 16.3298 29.0422 16.6275 28.6542 16.9518C28.2662 16.6275 27.8566 16.3298 27.4254 16.0588C25.6232 14.926 23.5493 14.3262 21.4237 14.3262C19.8931 14.3262 18.41 14.6283 17.0087 15.228C15.6549 15.8056 14.4347 16.6363 13.387 17.6937C12.3436 18.7427 11.5101 19.9924 10.9337 21.3721C10.3344 22.8071 10.0283 24.3309 10.0283 25.8991C10.0283 27.3785 10.3215 28.9201 10.9036 30.4883C11.3908 31.7989 12.0892 33.1583 12.9817 34.5311C14.3959 36.7035 16.3404 38.9692 18.7549 41.266C22.756 45.0733 26.7183 47.7033 26.8865 47.81L27.9083 48.4852C28.361 48.7829 28.9431 48.7829 29.3958 48.4852L30.4176 47.81C30.5858 47.6989 34.5438 45.0733 38.5492 41.266C40.9637 38.9692 42.9082 36.7035 44.3224 34.5311C45.2149 33.1583 45.9176 31.7989 46.4005 30.4883C46.9826 28.9201 47.2758 27.3785 47.2758 25.8991C47.2801 24.3309 46.974 22.8071 46.3747 21.3721ZM28.6542 44.9711C28.6542 44.9711 13.3051 34.8376 13.3051 25.8991C13.3051 21.3721 16.9397 17.7026 21.4237 17.7026C24.5755 17.7026 27.309 19.5151 28.6542 22.1629C29.9994 19.5151 32.7329 17.7026 35.8847 17.7026C40.3687 17.7026 44.0033 21.3721 44.0033 25.8991C44.0033 34.8376 28.6542 44.9711 28.6542 44.9711Z" fill="white"/>
<circle cx="28.6519" cy="28.6519" r="26.6519" stroke="white" stroke-width="4"/>
</svg>
