<svg width="47" height="35" viewBox="0 0 47 35" fill="none" xmlns="http://www.w3.org/2000/svg">
<path d="M10.1372 0.684336C10.3541 0.90104 10.5262 1.15838 10.6436 1.44164C10.7611 1.7249 10.8215 2.02853 10.8215 2.33517C10.8215 2.64181 10.7611 2.94543 10.6436 3.2287C10.5262 3.51196 10.3541 3.7693 10.1372 3.986C6.63585 7.4879 4.66889 12.2371 4.66889 17.1892C4.66889 22.1412 6.63585 26.8904 10.1372 30.3923C10.3538 30.6091 10.5256 30.8665 10.6428 31.1497C10.76 31.4328 10.8202 31.7363 10.8201 32.0428C10.82 32.3493 10.7596 32.6528 10.6422 32.9359C10.5248 33.219 10.3528 33.4762 10.136 33.6928C9.91921 33.9095 9.66187 34.0813 9.37868 34.1985C9.09549 34.3157 8.79199 34.3759 8.48551 34.3758C8.17903 34.3757 7.87557 34.3152 7.59246 34.1978C7.30935 34.0805 7.05214 33.9085 6.8355 33.6917C-2.2785 24.5777 -2.2785 9.79834 6.8355 0.684336C7.0522 0.467391 7.30954 0.295286 7.59281 0.177862C7.87607 0.060439 8.1797 0 8.48633 0C8.79297 0 9.0966 0.060439 9.37986 0.177862C9.66312 0.295286 9.92046 0.467391 10.1372 0.684336ZM39.8428 0.684336C48.9568 9.80067 48.9568 24.5777 39.8428 33.6917C39.4028 34.1167 38.8134 34.3519 38.2016 34.3466C37.5898 34.3413 37.0045 34.0959 36.5719 33.6632C36.1393 33.2306 35.8939 32.6454 35.8886 32.0336C35.8833 31.4218 36.1185 30.8324 36.5435 30.3923C40.0448 26.8904 42.0118 22.1412 42.0118 17.1892C42.0118 12.2371 40.0448 7.4879 36.5435 3.986C36.1057 3.54848 35.8596 2.95496 35.8594 2.33599C35.8591 1.71703 36.1048 1.12333 36.5423 0.685502C36.9799 0.247674 37.5734 0.00158175 38.1923 0.00136296C38.8113 0.00114417 39.405 0.246817 39.8428 0.684336ZM17.0602 7.39033C17.4976 7.8279 17.7433 8.42129 17.7433 9.04C17.7433 9.65872 17.4976 10.2521 17.0602 10.6897C16.2107 11.539 15.5369 12.5474 15.0772 13.6572C14.6175 14.767 14.3808 15.9564 14.3808 17.1577C14.3808 18.3589 14.6175 19.5484 15.0772 20.6582C15.5369 21.7679 16.2107 22.7763 17.0602 23.6257C17.283 23.8409 17.4608 24.0984 17.5831 24.3831C17.7054 24.6677 17.7697 24.9739 17.7724 25.2837C17.7751 25.5935 17.7161 25.9008 17.5988 26.1876C17.4814 26.4743 17.3082 26.7348 17.0891 26.9539C16.87 27.173 16.6095 27.3463 16.3227 27.4636C16.036 27.5809 15.7287 27.6399 15.4189 27.6373C15.1091 27.6346 14.8029 27.5702 14.5182 27.4479C14.2335 27.3256 13.9761 27.1479 13.7608 26.925C11.1704 24.3345 9.71517 20.8211 9.71517 17.1577C9.71517 13.4942 11.1704 9.98082 13.7608 7.39033C14.1984 6.9529 14.7918 6.70717 15.4105 6.70717C16.0292 6.70717 16.6226 6.9529 17.0602 7.39033ZM33.2978 7.39033C35.8882 9.98082 37.3435 13.4942 37.3435 17.1577C37.3435 20.8211 35.8882 24.3345 33.2978 26.925C33.0812 27.1418 32.824 27.3138 32.5409 27.4312C32.2578 27.5486 31.9543 27.609 31.6478 27.6091C31.3413 27.6093 31.0378 27.549 30.7547 27.4318C30.4715 27.3146 30.2141 27.1428 29.9973 26.9262C29.7805 26.7095 29.6085 26.4523 29.4912 26.1692C29.3738 25.8861 29.3133 25.5826 29.3132 25.2762C29.3131 24.9697 29.3733 24.6662 29.4905 24.383C29.6077 24.0998 29.7795 23.8425 29.9962 23.6257C30.8456 22.7763 31.5194 21.7679 31.9792 20.6582C32.4389 19.5484 32.6755 18.3589 32.6755 17.1577C32.6755 15.9564 32.4389 14.767 31.9792 13.6572C31.5194 12.5474 30.8456 11.539 29.9962 10.6897C29.5586 10.2518 29.313 9.65814 29.3132 9.03918C29.3134 8.42021 29.5595 7.82669 29.9973 7.38917C30.4352 6.95165 31.0289 6.70598 31.6478 6.7062C32.2668 6.70641 32.8603 6.95251 33.2978 7.39033ZM23.5282 13.8537C23.9878 13.8537 24.4429 13.9442 24.8676 14.1201C25.2922 14.296 25.678 14.5538 26.003 14.8788C26.328 15.2038 26.5859 15.5896 26.7617 16.0143C26.9376 16.4389 27.0282 16.894 27.0282 17.3537C27.0282 17.8133 26.9376 18.2684 26.7617 18.6931C26.5859 19.1177 26.328 19.5035 26.003 19.8285C25.678 20.1535 25.2922 20.4114 24.8676 20.5872C24.4429 20.7631 23.9878 20.8537 23.5282 20.8537C22.5999 20.8537 21.7097 20.4849 21.0533 19.8285C20.3969 19.1722 20.0282 18.2819 20.0282 17.3537C20.0282 16.4254 20.3969 15.5352 21.0533 14.8788C21.7097 14.2224 22.5999 13.8537 23.5282 13.8537Z" fill="white"/>
</svg>
