<svg width="437" height="94" viewBox="0 0 437 94" fill="none" xmlns="http://www.w3.org/2000/svg">
<rect width="437" height="94" rx="21" fill="#262626"/>
<path d="M137.215 32.5625H142.176L149.48 53.4414L156.785 32.5625H161.746L151.473 61H147.488L137.215 32.5625ZM134.539 32.5625H139.48L140.379 52.9141V61H134.539V32.5625ZM159.48 32.5625H164.441V61H158.582V52.9141L159.48 32.5625ZM179.553 61.3906C177.912 61.3906 176.441 61.1302 175.139 60.6094C173.837 60.0755 172.73 59.3398 171.819 58.4023C170.92 57.4648 170.23 56.3776 169.748 55.1406C169.267 53.8906 169.026 52.5625 169.026 51.1562V50.375C169.026 48.7734 169.254 47.3086 169.709 45.9805C170.165 44.6523 170.816 43.5 171.662 42.5234C172.522 41.5469 173.564 40.7982 174.787 40.2773C176.011 39.7435 177.392 39.4766 178.928 39.4766C180.426 39.4766 181.754 39.724 182.912 40.2188C184.071 40.7135 185.041 41.4167 185.823 42.3281C186.617 43.2396 187.216 44.3333 187.62 45.6094C188.023 46.8724 188.225 48.2786 188.225 49.8281V52.1719H171.428V48.4219H182.698V47.9922C182.698 47.2109 182.554 46.5143 182.268 45.9023C181.995 45.2773 181.578 44.7826 181.018 44.418C180.458 44.0534 179.742 43.8711 178.87 43.8711C178.127 43.8711 177.489 44.0339 176.955 44.3594C176.422 44.6849 175.985 45.1406 175.647 45.7266C175.321 46.3125 175.074 47.0026 174.905 47.7969C174.748 48.5781 174.67 49.4375 174.67 50.375V51.1562C174.67 52.0026 174.787 52.7839 175.022 53.5C175.269 54.2161 175.614 54.8346 176.057 55.3555C176.513 55.8763 177.06 56.2799 177.698 56.5664C178.349 56.8529 179.084 56.9961 179.905 56.9961C180.92 56.9961 181.864 56.8008 182.737 56.4102C183.622 56.0065 184.384 55.401 185.022 54.5938L187.756 57.5625C187.314 58.2005 186.708 58.8125 185.94 59.3984C185.185 59.9844 184.273 60.4661 183.205 60.8438C182.138 61.2083 180.92 61.3906 179.553 61.3906ZM203.454 55.1602C203.454 54.7565 203.337 54.3919 203.102 54.0664C202.868 53.7409 202.432 53.4414 201.794 53.168C201.169 52.8815 200.264 52.6211 199.079 52.3867C198.011 52.1523 197.015 51.8594 196.091 51.5078C195.179 51.1432 194.385 50.707 193.708 50.1992C193.044 49.6914 192.523 49.0924 192.145 48.4023C191.768 47.6992 191.579 46.8984 191.579 46C191.579 45.1146 191.768 44.2812 192.145 43.5C192.536 42.7188 193.089 42.0286 193.805 41.4297C194.535 40.8177 195.42 40.3424 196.462 40.0039C197.516 39.6523 198.701 39.4766 200.016 39.4766C201.852 39.4766 203.428 39.7695 204.743 40.3555C206.071 40.9414 207.087 41.7487 207.79 42.7773C208.506 43.793 208.864 44.9518 208.864 46.2539H203.239C203.239 45.707 203.122 45.2188 202.888 44.7891C202.666 44.3464 202.315 44.0013 201.833 43.7539C201.364 43.4935 200.752 43.3633 199.997 43.3633C199.372 43.3633 198.832 43.474 198.376 43.6953C197.92 43.9036 197.568 44.1901 197.321 44.5547C197.087 44.9062 196.97 45.2969 196.97 45.7266C196.97 46.0521 197.035 46.3451 197.165 46.6055C197.308 46.8529 197.536 47.0807 197.848 47.2891C198.161 47.4974 198.565 47.6927 199.059 47.875C199.567 48.0443 200.192 48.2005 200.934 48.3438C202.458 48.6562 203.818 49.0664 205.016 49.5742C206.214 50.069 207.165 50.7461 207.868 51.6055C208.571 52.4518 208.923 53.5651 208.923 54.9453C208.923 55.8828 208.714 56.7422 208.298 57.5234C207.881 58.3047 207.282 58.9883 206.501 59.5742C205.72 60.1471 204.782 60.5964 203.688 60.9219C202.608 61.2344 201.39 61.3906 200.036 61.3906C198.07 61.3906 196.403 61.0391 195.036 60.3359C193.682 59.6328 192.653 58.7409 191.95 57.6602C191.26 56.5664 190.915 55.4466 190.915 54.3008H196.247C196.273 55.069 196.468 55.6875 196.833 56.1562C197.21 56.625 197.686 56.9635 198.259 57.1719C198.845 57.3802 199.476 57.4844 200.153 57.4844C200.882 57.4844 201.488 57.3867 201.97 57.1914C202.451 56.9831 202.816 56.7096 203.063 56.3711C203.324 56.0195 203.454 55.6159 203.454 55.1602ZM224.601 55.1602C224.601 54.7565 224.484 54.3919 224.249 54.0664C224.015 53.7409 223.579 53.4414 222.941 53.168C222.316 52.8815 221.411 52.6211 220.226 52.3867C219.158 52.1523 218.162 51.8594 217.238 51.5078C216.326 51.1432 215.532 50.707 214.855 50.1992C214.191 49.6914 213.67 49.0924 213.292 48.4023C212.915 47.6992 212.726 46.8984 212.726 46C212.726 45.1146 212.915 44.2812 213.292 43.5C213.683 42.7188 214.236 42.0286 214.952 41.4297C215.682 40.8177 216.567 40.3424 217.609 40.0039C218.663 39.6523 219.848 39.4766 221.163 39.4766C222.999 39.4766 224.575 39.7695 225.89 40.3555C227.218 40.9414 228.234 41.7487 228.937 42.7773C229.653 43.793 230.011 44.9518 230.011 46.2539H224.386C224.386 45.707 224.269 45.2188 224.034 44.7891C223.813 44.3464 223.461 44.0013 222.98 43.7539C222.511 43.4935 221.899 43.3633 221.144 43.3633C220.519 43.3633 219.978 43.474 219.523 43.6953C219.067 43.9036 218.715 44.1901 218.468 44.5547C218.234 44.9062 218.116 45.2969 218.116 45.7266C218.116 46.0521 218.182 46.3451 218.312 46.6055C218.455 46.8529 218.683 47.0807 218.995 47.2891C219.308 47.4974 219.711 47.6927 220.206 47.875C220.714 48.0443 221.339 48.2005 222.081 48.3438C223.605 48.6562 224.965 49.0664 226.163 49.5742C227.361 50.069 228.312 50.7461 229.015 51.6055C229.718 52.4518 230.07 53.5651 230.07 54.9453C230.07 55.8828 229.861 56.7422 229.445 57.5234C229.028 58.3047 228.429 58.9883 227.648 59.5742C226.866 60.1471 225.929 60.5964 224.835 60.9219C223.754 61.2344 222.537 61.3906 221.183 61.3906C219.217 61.3906 217.55 61.0391 216.183 60.3359C214.829 59.6328 213.8 58.7409 213.097 57.6602C212.407 56.5664 212.062 55.4466 212.062 54.3008H217.394C217.42 55.069 217.615 55.6875 217.98 56.1562C218.357 56.625 218.833 56.9635 219.405 57.1719C219.991 57.3802 220.623 57.4844 221.3 57.4844C222.029 57.4844 222.635 57.3867 223.116 57.1914C223.598 56.9831 223.963 56.7096 224.21 56.3711C224.471 56.0195 224.601 55.6159 224.601 55.1602ZM245.728 56.2344V46.8203C245.728 46.1432 245.617 45.5638 245.396 45.082C245.175 44.5872 244.83 44.2031 244.361 43.9297C243.905 43.6562 243.313 43.5195 242.584 43.5195C241.959 43.5195 241.418 43.6302 240.963 43.8516C240.507 44.0599 240.155 44.3659 239.908 44.7695C239.66 45.1602 239.537 45.6224 239.537 46.1562H233.912C233.912 45.2578 234.12 44.4049 234.537 43.5977C234.953 42.7904 235.559 42.0807 236.353 41.4688C237.147 40.8438 238.091 40.3555 239.185 40.0039C240.292 39.6523 241.529 39.4766 242.896 39.4766C244.537 39.4766 245.995 39.75 247.271 40.2969C248.547 40.8438 249.55 41.6641 250.279 42.7578C251.021 43.8516 251.392 45.2188 251.392 46.8594V55.9023C251.392 57.0612 251.464 58.0117 251.607 58.7539C251.75 59.4831 251.959 60.1211 252.232 60.668V61H246.548C246.275 60.4271 246.067 59.7109 245.923 58.8516C245.793 57.9792 245.728 57.1068 245.728 56.2344ZM246.47 48.1289L246.509 51.3125H243.365C242.623 51.3125 241.978 51.3971 241.431 51.5664C240.884 51.7357 240.435 51.9766 240.084 52.2891C239.732 52.5885 239.472 52.9401 239.302 53.3438C239.146 53.7474 239.068 54.1901 239.068 54.6719C239.068 55.1536 239.179 55.5898 239.4 55.9805C239.621 56.3581 239.94 56.6576 240.357 56.8789C240.774 57.0872 241.262 57.1914 241.822 57.1914C242.668 57.1914 243.404 57.0221 244.029 56.6836C244.654 56.3451 245.136 55.9284 245.474 55.4336C245.826 54.9388 246.008 54.4701 246.021 54.0273L247.505 56.4102C247.297 56.944 247.011 57.4974 246.646 58.0703C246.295 58.6432 245.845 59.1836 245.298 59.6914C244.752 60.1862 244.094 60.5964 243.326 60.9219C242.558 61.2344 241.646 61.3906 240.591 61.3906C239.25 61.3906 238.033 61.1237 236.939 60.5898C235.858 60.043 234.999 59.2943 234.361 58.3438C233.736 57.3802 233.423 56.2865 233.423 55.0625C233.423 53.9557 233.632 52.9727 234.048 52.1133C234.465 51.2539 235.077 50.5312 235.884 49.9453C236.705 49.3464 237.727 48.8971 238.951 48.5977C240.175 48.2852 241.594 48.1289 243.209 48.1289H246.47ZM269.707 39.8672H274.805V60.2969C274.805 62.224 274.375 63.8581 273.516 65.1992C272.669 66.5534 271.484 67.5755 269.961 68.2656C268.438 68.9688 266.667 69.3203 264.648 69.3203C263.763 69.3203 262.826 69.2031 261.836 68.9688C260.859 68.7344 259.922 68.3698 259.023 67.875C258.138 67.3802 257.396 66.7552 256.797 66L259.277 62.6797C259.928 63.4349 260.684 64.0208 261.543 64.4375C262.402 64.8672 263.353 65.082 264.395 65.082C265.41 65.082 266.27 64.8932 266.973 64.5156C267.676 64.151 268.216 63.6107 268.594 62.8945C268.971 62.1914 269.16 61.3385 269.16 60.3359V44.75L269.707 39.8672ZM255.488 50.6875V50.2773C255.488 48.6628 255.684 47.1979 256.074 45.8828C256.478 44.5547 257.044 43.4154 257.773 42.4648C258.516 41.5143 259.414 40.7786 260.469 40.2578C261.523 39.737 262.715 39.4766 264.043 39.4766C265.449 39.4766 266.628 39.737 267.578 40.2578C268.529 40.7786 269.31 41.5208 269.922 42.4844C270.534 43.4349 271.009 44.5612 271.348 45.8633C271.699 47.1523 271.973 48.5651 272.168 50.1016V51C271.973 52.4714 271.68 53.8385 271.289 55.1016C270.898 56.3646 270.384 57.4714 269.746 58.4219C269.108 59.3594 268.314 60.0885 267.363 60.6094C266.426 61.1302 265.306 61.3906 264.004 61.3906C262.702 61.3906 261.523 61.1237 260.469 60.5898C259.427 60.056 258.535 59.3073 257.793 58.3438C257.051 57.3802 256.478 56.2474 256.074 54.9453C255.684 53.6432 255.488 52.224 255.488 50.6875ZM261.113 50.2773V50.6875C261.113 51.5599 261.198 52.3737 261.367 53.1289C261.536 53.8841 261.797 54.5547 262.148 55.1406C262.513 55.7135 262.962 56.1628 263.496 56.4883C264.043 56.8008 264.688 56.957 265.43 56.957C266.458 56.957 267.298 56.7422 267.949 56.3125C268.6 55.8698 269.089 55.2643 269.414 54.4961C269.74 53.7279 269.928 52.8424 269.98 51.8398V49.2812C269.954 48.4609 269.844 47.7253 269.648 47.0742C269.453 46.4102 269.18 45.8438 268.828 45.375C268.477 44.9062 268.021 44.5417 267.461 44.2812C266.901 44.0208 266.237 43.8906 265.469 43.8906C264.727 43.8906 264.082 44.0599 263.535 44.3984C263.001 44.724 262.552 45.1732 262.188 45.7461C261.836 46.319 261.569 46.9961 261.387 47.7773C261.204 48.5456 261.113 49.3789 261.113 50.2773ZM289.506 61.3906C287.866 61.3906 286.394 61.1302 285.092 60.6094C283.79 60.0755 282.683 59.3398 281.772 58.4023C280.873 57.4648 280.183 56.3776 279.702 55.1406C279.22 53.8906 278.979 52.5625 278.979 51.1562V50.375C278.979 48.7734 279.207 47.3086 279.663 45.9805C280.118 44.6523 280.769 43.5 281.616 42.5234C282.475 41.5469 283.517 40.7982 284.741 40.2773C285.965 39.7435 287.345 39.4766 288.881 39.4766C290.379 39.4766 291.707 39.724 292.866 40.2188C294.024 40.7135 294.995 41.4167 295.776 42.3281C296.57 43.2396 297.169 44.3333 297.573 45.6094C297.976 46.8724 298.178 48.2786 298.178 49.8281V52.1719H281.381V48.4219H292.651V47.9922C292.651 47.2109 292.508 46.5143 292.221 45.9023C291.948 45.2773 291.531 44.7826 290.971 44.418C290.411 44.0534 289.695 43.8711 288.823 43.8711C288.08 43.8711 287.442 44.0339 286.909 44.3594C286.375 44.6849 285.939 45.1406 285.6 45.7266C285.274 46.3125 285.027 47.0026 284.858 47.7969C284.702 48.5781 284.623 49.4375 284.623 50.375V51.1562C284.623 52.0026 284.741 52.7839 284.975 53.5C285.222 54.2161 285.567 54.8346 286.01 55.3555C286.466 55.8763 287.013 56.2799 287.651 56.5664C288.302 56.8529 289.038 56.9961 289.858 56.9961C290.873 56.9961 291.817 56.8008 292.69 56.4102C293.575 56.0065 294.337 55.401 294.975 54.5938L297.709 57.5625C297.267 58.2005 296.661 58.8125 295.893 59.3984C295.138 59.9844 294.226 60.4661 293.159 60.8438C292.091 61.2083 290.873 61.3906 289.506 61.3906Z" fill="white"/>
</svg>
