<svg width="58" height="58" viewBox="0 0 58 58" fill="none" xmlns="http://www.w3.org/2000/svg">
<mask id="path-1-inside-1_10_993" fill="white">
<rect x="10.4189" y="10.4189" width="15.6283" height="15.6283" rx="2"/>
</mask>
<rect x="10.4189" y="10.4189" width="15.6283" height="15.6283" rx="2" stroke="white" stroke-width="8" mask="url(#path-1-inside-1_10_993)"/>
<mask id="path-2-inside-2_10_993" fill="white">
<rect x="10.4189" y="31.2568" width="15.6283" height="15.6283" rx="2"/>
</mask>
<rect x="10.4189" y="31.2568" width="15.6283" height="15.6283" rx="2" stroke="white" stroke-width="8" mask="url(#path-2-inside-2_10_993)"/>
<mask id="path-3-inside-3_10_993" fill="white">
<rect x="31.2568" y="10.4189" width="15.6283" height="15.6283" rx="2"/>
</mask>
<rect x="31.2568" y="10.4189" width="15.6283" height="15.6283" rx="2" stroke="white" stroke-width="8" mask="url(#path-3-inside-3_10_993)"/>
<path fill-rule="evenodd" clip-rule="evenodd" d="M5 0H20.4888C21.0411 0 21.4888 0.447715 21.4888 1C21.4888 1.55228 21.0411 2 20.4888 2H5C3.34315 2 2 3.34315 2 5V20.4889C2 21.0412 1.55228 21.4889 1 21.4889C0.447715 21.4889 0 21.0412 0 20.4889V5C0 2.23858 2.23858 0 5 0ZM1 35.8149C0.447715 35.8149 0 36.2626 0 36.8149V52.3038C0 55.0653 2.23858 57.3038 5 57.3038H20.4888C21.0411 57.3038 21.4888 56.8561 21.4888 56.3038C21.4888 55.7516 21.0411 55.3038 20.4888 55.3038H5C3.34315 55.3038 2 53.9607 2 52.3038V36.8149C2 36.2626 1.55228 35.8149 1 35.8149ZM36.8147 57.3038C36.2625 57.3038 35.8147 56.8561 35.8147 56.3038C35.8147 55.7516 36.2625 55.3038 36.8147 55.3038H52.3038C53.9607 55.3038 55.3038 53.9607 55.3038 52.3038V36.8149C55.3038 36.2626 55.7516 35.8149 56.3038 35.8149C56.8561 35.8149 57.3038 36.2626 57.3038 36.8149V52.3038C57.3038 55.0653 55.0653 57.3038 52.3038 57.3038H36.8147ZM56.3038 21.4889C56.8561 21.4889 57.3038 21.0412 57.3038 20.4889V5C57.3038 2.23858 55.0653 0 52.3038 0H36.8147C36.2625 0 35.8147 0.447715 35.8147 1C35.8147 1.55228 36.2625 2 36.8147 2H52.3038C53.9607 2 55.3038 3.34315 55.3038 5V20.4889C55.3038 21.0412 55.7516 21.4889 56.3038 21.4889Z" fill="white"/>
<mask id="path-5-inside-4_10_993" fill="white">
<rect x="31.2568" y="31.2568" width="15.6283" height="15.6283" rx="2"/>
</mask>
<rect x="31.2568" y="31.2568" width="15.6283" height="15.6283" rx="2" stroke="white" stroke-width="8" mask="url(#path-5-inside-4_10_993)"/>
</svg>
