<svg width="59" height="58" viewBox="0 0 59 58" fill="none" xmlns="http://www.w3.org/2000/svg">
<path d="M2.77051 28.9973V38.3114C2.77051 46.0029 4.65511 49.1238 7.10671 51.6588C9.64471 54.1129 12.7713 56 20.4609 56H39.0801C46.7697 56 49.8963 54.1102 52.4343 51.6588C54.8859 49.1238 56.7705 46.0056 56.7705 38.3114V19.6886C56.7705 11.9971 54.8859 8.87351 52.4343 6.33847C49.8963 3.88981 46.7697 2 39.0801 2H20.4609C12.7713 2 9.64471 3.88711 7.10671 6.33847C4.65511 8.87621 2.77051 11.9971 2.77051 19.6886V28.9973Z" stroke="white" stroke-width="4" stroke-linecap="round" stroke-linejoin="round"/>
<path d="M38.6517 36.7801C39.2358 36.4296 39.2358 35.583 38.6517 35.2325L26.268 27.8024C25.6666 27.4415 24.9014 27.8747 24.9014 28.5762V43.4365C24.9014 44.1379 25.6666 44.5712 26.268 44.2103L38.6517 36.7801Z" fill="white"/>
<path d="M1 18.8198H57.6557" stroke="white" stroke-width="4"/>
<path d="M16.9346 2.88525L24.9018 18.8197" stroke="white" stroke-width="4"/>
<path d="M33.7539 2.88525L42.6064 18.8197" stroke="white" stroke-width="4"/>
</svg>
