<svg width="49" height="49" viewBox="0 0 49 49" fill="none" xmlns="http://www.w3.org/2000/svg">
<path d="M14 22.0045C13.9999 21.251 14.1499 20.505 14.4414 19.8101C14.7329 19.1153 15.16 18.4855 15.6977 17.9576C16.2353 17.4297 16.8728 17.0142 17.5729 16.7356C18.273 16.4569 19.0216 16.3205 19.775 16.3345C20.6664 16.3297 21.5486 16.5145 22.3632 16.8766C23.1778 17.2386 23.9062 17.7696 24.5 18.4345C25.0938 17.7696 25.8222 17.2386 26.6368 16.8766C27.4514 16.5145 28.3336 16.3297 29.225 16.3345C29.9784 16.3205 30.727 16.4569 31.4271 16.7356C32.1272 17.0142 32.7647 17.4297 33.3023 17.9576C33.84 18.4855 34.2671 19.1153 34.5586 19.8101C34.8501 20.505 35.0001 21.251 35 22.0045C35 27.6283 28.3021 31.8745 24.5 35.2345C20.7064 31.8461 14 27.6325 14 22.0045Z" fill="white"/>
<path d="M41.5447 12.4246C42.4675 14.6773 43.5859 17.1851 44.1492 19.4218C44.6546 21.4056 44.8619 23.4534 44.7643 25.4981C44.669 27.5404 44.265 29.5567 43.566 31.4786C42.8754 33.3731 41.9002 35.1517 40.6739 36.7534C39.452 38.3371 37.9944 39.7247 36.3518 40.8681C35.7415 41.2987 35.1095 41.698 34.4583 42.0642C33.8086 42.431 33.1428 42.7619 32.4611 43.0569C31.0053 43.7025 29.48 44.1787 27.9152 44.4763C26.3798 44.7688 24.8149 44.8786 23.2536 44.8033L22.7702 44.7714L21.6677 48.87L22.4227 48.9298C24.4134 49.0818 26.4153 48.9867 28.3826 48.6468C30.3787 48.2945 32.3248 47.7028 34.1787 46.8845C34.9617 46.5389 35.7379 46.1495 36.5076 45.7163C37.2545 45.2937 38.0055 44.8192 38.7525 44.3009C42.7919 41.495 45.8608 37.5085 47.5366 32.89C49.2205 28.2335 49.4572 23.1781 48.2156 18.3852C47.4167 16.0847 46.5459 13.0466 44.8961 10.7221C43.8056 9.18314 40.61 10.0962 41.5607 12.4246H41.5447ZM9.688 44.0058C11.1043 45.1045 12.6399 46.0407 14.2658 46.7968L14.9409 47.1117L16.0394 43.025L15.58 42.8058C14.3962 42.218 13.2747 41.5128 12.2325 40.7006C11.1774 39.8781 10.2073 38.9525 9.33648 37.9376L8.99694 37.5389L5.33392 39.648L5.80528 40.2182C6.95523 41.6178 8.25747 42.8854 9.688 43.9979V44.0058ZM0.22886 27.7268C0.48372 29.5196 0.943427 31.2774 1.599 32.9658L1.85864 33.6515L5.52167 31.5424L5.34591 31.048C4.89546 29.792 4.57424 28.4935 4.38721 27.1726C4.20105 25.8522 4.15152 24.5161 4.23941 23.1856L4.26737 22.6713L0.164947 21.5948L0.0970391 22.3324C-0.0671189 24.1296 -0.0228858 25.9397 0.22886 27.7268ZM3.34862 12.3648C2.98112 12.9828 2.64957 13.6047 2.34598 14.2387L2.02242 14.9165L6.11686 16.0129L6.34854 15.5544C6.58023 15.1039 6.8239 14.6653 7.07955 14.2427C7.3352 13.82 7.61882 13.3934 7.91841 12.9788C8.40385 12.2975 8.92382 11.6415 9.47629 11.0132C10.0124 10.3978 10.5833 9.81345 11.186 9.26288L11.5575 8.92398L9.43635 5.25192L8.86113 5.7503C8.05187 6.45419 7.28617 7.20647 6.56824 8.00297C5.83466 8.81537 5.14782 9.66864 4.51104 10.5587C4.09161 11.1487 3.71213 11.7548 3.34463 12.3528L3.34862 12.3648ZM20.1498 0.315982C18.7633 0.547801 17.4028 0.913672 16.0873 1.40843L15.3923 1.66759L17.5094 5.32768L17.9967 5.15624C20.0131 4.45902 22.139 4.13081 24.2722 4.18739C24.7555 4.18739 25.2628 4.23125 25.7861 4.29105C26.3094 4.35086 26.7888 4.42262 27.2801 4.5223C27.7714 4.62197 28.2987 4.74557 28.798 4.89309C29.2974 5.04061 29.7967 5.21205 30.312 5.41141C30.5689 5.51417 30.8438 5.56504 31.1206 5.56108C31.3974 5.55711 31.6706 5.49838 31.9245 5.38829C32.1784 5.27819 32.4079 5.11893 32.5997 4.91971C32.7915 4.72049 32.9418 4.48527 33.042 4.22768C33.1421 3.97008 33.19 3.69522 33.183 3.41901C33.1759 3.1428 33.1141 2.87072 33.001 2.61853C32.8879 2.36635 32.7258 2.13905 32.5241 1.94982C32.3224 1.76058 32.0851 1.61315 31.8259 1.51608C31.2187 1.28084 30.5956 1.06953 29.9605 0.88214C29.3253 0.69475 28.7141 0.54723 28.103 0.423632C27.4918 0.300034 26.8766 0.204345 26.2695 0.136566C25.6623 0.0687864 25.0192 0.024929 24.3681 0.00499388C22.9553 -0.0248701 21.5428 0.0792603 20.1498 0.315982Z" fill="white"/>
</svg>
