<svg width="49" height="49" viewBox="0 0 49 49" fill="none" xmlns="http://www.w3.org/2000/svg">
<path d="M41.5447 12.4246C42.4674 14.6773 43.5859 17.1851 44.1492 19.4218C44.6546 21.4056 44.8619 23.4534 44.7643 25.4981C44.669 27.5404 44.265 29.5567 43.566 31.4786C42.8754 33.3731 41.9002 35.1517 40.6739 36.7534C39.452 38.3371 37.9944 39.7247 36.3518 40.8681C35.7415 41.2987 35.1095 41.698 34.4583 42.0642C33.8086 42.431 33.1428 42.7619 32.4611 43.0569C31.0053 43.7025 29.48 44.1787 27.9152 44.4763C26.3798 44.7688 24.8149 44.8786 23.2536 44.8033L22.7702 44.7714L21.6677 48.87L22.4227 48.9298C24.4134 49.0818 26.4153 48.9867 28.3826 48.6468C30.3787 48.2945 32.3248 47.7028 34.1787 46.8845C34.9617 46.5389 35.7379 46.1495 36.5076 45.7163C37.2545 45.2937 38.0055 44.8192 38.7525 44.3009C42.7919 41.495 45.8608 37.5085 47.5366 32.89C49.2205 28.2335 49.4572 23.1781 48.2156 18.3852C47.4167 16.0847 46.5459 13.0466 44.8961 10.7221C43.8056 9.18314 40.61 10.0962 41.5607 12.4246H41.5447ZM22.3708 17.843C22.3583 17.5559 22.4042 17.2693 22.5057 17.0004C22.6072 16.7314 22.7621 16.4858 22.9613 16.2783C23.1604 16.0708 23.3995 15.9056 23.6643 15.7928C23.9291 15.6799 24.214 15.6218 24.5019 15.6218C24.7898 15.6218 25.0747 15.6799 25.3394 15.7928C25.6042 15.9056 25.8434 16.0708 26.0425 16.2783C26.2416 16.4858 26.3966 16.7314 26.4981 17.0004C26.5995 17.2693 26.6454 17.5559 26.633 17.843V22.3722H31.1588C31.7246 22.3722 32.2671 22.5965 32.6671 22.9958C33.0672 23.3951 33.2919 23.9366 33.2919 24.5013C33.2919 25.066 33.0672 25.6075 32.6671 26.0068C32.2671 26.4061 31.7246 26.6304 31.1588 26.6304H26.629V31.1596C26.6414 31.4467 26.5955 31.7333 26.4941 32.0023C26.3926 32.2712 26.2376 32.5168 26.0385 32.7243C25.8394 32.9318 25.6002 33.097 25.3354 33.2098C25.0707 33.3227 24.7858 33.3808 24.4979 33.3808C24.21 33.3808 23.9251 33.3227 23.6603 33.2098C23.3955 33.097 23.1564 32.9318 22.9573 32.7243C22.7581 32.5168 22.6032 32.2712 22.5017 32.0023C22.4002 31.7333 22.3543 31.4467 22.3668 31.1596V26.6304H17.8249C17.2592 26.6304 16.7166 26.4061 16.3166 26.0068C15.9166 25.6075 15.6918 25.066 15.6918 24.5013C15.6918 23.9366 15.9166 23.3951 16.3166 22.9958C16.7166 22.5965 17.2592 22.3722 17.8249 22.3722H22.3708V17.843ZM9.688 44.0058C11.1043 45.1045 12.6399 46.0407 14.2658 46.7968L14.9409 47.1117L16.0394 43.025L15.58 42.8058C14.3962 42.218 13.2747 41.5128 12.2325 40.7006C11.1774 39.8781 10.2073 38.9525 9.33648 37.9376L8.99694 37.5389L5.33392 39.648L5.80528 40.2182C6.95523 41.6178 8.25747 42.8854 9.688 43.9979V44.0058ZM0.22886 27.7268C0.48372 29.5196 0.943427 31.2774 1.599 32.9658L1.85864 33.6515L5.52167 31.5424L5.34591 31.048C4.89546 29.792 4.57424 28.4935 4.38721 27.1726C4.20105 25.8522 4.15152 24.5161 4.23941 23.1856L4.26737 22.6713L0.164947 21.5948L0.0970391 22.3324C-0.0671189 24.1296 -0.0228858 25.9397 0.22886 27.7268ZM3.34862 12.3648C2.98112 12.9828 2.64957 13.6047 2.34598 14.2387L2.02242 14.9165L6.11686 16.0129L6.34854 15.5544C6.58023 15.1039 6.8239 14.6653 7.07955 14.2427C7.3352 13.82 7.61882 13.3934 7.91841 12.9788C8.40385 12.2975 8.92382 11.6415 9.47629 11.0132C10.0124 10.3978 10.5833 9.81345 11.186 9.26288L11.5575 8.92398L9.43635 5.25192L8.86113 5.7503C8.05187 6.45419 7.28617 7.20647 6.56824 8.00297C5.83466 8.81537 5.14782 9.66864 4.51104 10.5587C4.09161 11.1487 3.71213 11.7548 3.34463 12.3528L3.34862 12.3648ZM20.1498 0.315982C18.7633 0.547801 17.4028 0.913672 16.0873 1.40843L15.3922 1.66759L17.5094 5.32768L17.9967 5.15624C20.0131 4.45902 22.139 4.13081 24.2722 4.18739C24.7555 4.18739 25.2628 4.23125 25.7861 4.29105C26.3094 4.35086 26.7888 4.42262 27.2801 4.5223C27.7714 4.62197 28.2987 4.74557 28.798 4.89309C29.2973 5.04061 29.7967 5.21205 30.312 5.41141C30.5689 5.51417 30.8438 5.56504 31.1206 5.56108C31.3974 5.55711 31.6706 5.49838 31.9245 5.38829C32.1784 5.27819 32.4079 5.11893 32.5997 4.91971C32.7915 4.72049 32.9418 4.48527 33.042 4.22768C33.1421 3.97008 33.19 3.69522 33.183 3.41901C33.1759 3.1428 33.1141 2.87072 33.001 2.61853C32.8879 2.36635 32.7258 2.13905 32.5241 1.94982C32.3224 1.76058 32.0851 1.61315 31.8259 1.51608C31.2187 1.28084 30.5956 1.06953 29.9605 0.88214C29.3253 0.69475 28.7141 0.54723 28.103 0.423632C27.4918 0.300034 26.8766 0.204345 26.2695 0.136566C25.6623 0.0687864 25.0192 0.024929 24.368 0.00499388C22.9553 -0.0248701 21.5428 0.0792602 20.1498 0.315982Z" fill="white"/>
</svg>
